<svg xmlns="http://www.w3.org/2000/svg" xmlns:xlink="http://www.w3.org/1999/xlink" id="Layer_2" width="841.89" height="595.275" x="0" y="0" enable-background="new 0 0 841.89 595.275" version="1.1" viewBox="0 0 841.89 595.275" xml:space="preserve"><rect width="757.461" height="568.099" x="44.858" y="13.177" fill="#3DB44A" name="草地"/><rect width="53.424" height="568.099" x="76.332" y="13.177" fill="#23A94A" name="草地"/><rect width="53.424" height="568.099" x="183.179" y="13.177" fill="#23A94A" name="草地"/><rect width="53.424" height="568.099" x="290.028" y="13.177" fill="#23A94A" name="草地"/><rect width="53.419" height="568.099" x="396.879" y="13.177" fill="#23A94A" name="草地"/><rect width="53.421" height="568.099" x="503.722" y="13.177" fill="#23A94A" name="草地"/><rect width="53.427" height="568.099" x="610.564" y="13.177" fill="#23A94A" name="草地"/><rect width="53.424" height="568.099" x="717.416" y="13.177" fill="#23A94A" name="草地"/><rect width="328.274" height="493.141" x="97.096" y="49.827" fill="none" stroke="#FFF" stroke-width="3.082" name="球场区1"/><rect width="328.274" height="493.141" x="425.588" y="49.827" fill="none" stroke="#FFF" stroke-width="3.082" name="球场区2"/><circle cx="425.127" cy="296.913" r="50.683" fill="none" stroke="#FFF" stroke-width="3.082" name="中圈"/><circle cx="425.126" cy="296.913" r="4.109" fill="#FFF" name="开球点"/><path fill="none" stroke="#FFF" stroke-width="3.082" d="M188.312,257.923c11.29,9.231,18.496,23.27,18.496,38.99	c0,15.718-7.203,29.753-18.488,38.982" name="禁区弧线1"/><rect width="91.438" height="220.885" x="96.879" y="186.983" fill="none" stroke="#FFF" stroke-width="3.082" name="禁区1"/><rect width="30.822" height="99.657" x="96.879" y="246.569" fill="none" stroke="#FFF" stroke-width="3.082" name="球门区1"/><rect width="16.437" height="40.066" x="80.442" y="276.365" fill="none" stroke="#FFF" stroke-width="3.082" name="球门1"/><circle cx="156.467" cy="296.913" r="4.11" fill="#FFF" name="点球点1"/><path fill="none" stroke="#FFF" stroke-width="3.082" d="M661.941,336.93c-11.291-9.232-18.496-23.27-18.496-38.99	c0-15.718,7.203-29.753,18.487-38.983" name="禁区弧线2"/><rect width="91.435" height="220.885" x="661.938" y="186.983" fill="none" stroke="#FFF" stroke-width="3.082" name="禁区2"/><rect width="30.822" height="99.658" x="722.551" y="248.625" fill="none" stroke="#FFF" stroke-width="3.082" name="球门区2"/><rect width="16.439" height="40.066" x="753.373" y="278.421" fill="none" stroke="#FFF" stroke-width="3.082" name="球门2"/><circle cx="693.786" cy="297.939" r="4.108" fill="#FFF" name="点球点2"/><path fill="none" stroke="#FFF" stroke-width="3.082" d="M114.858,50.58c0,9.93-8.051,17.981-17.981,17.981" name="角球1"/><path fill="none" stroke="#FFF" stroke-width="3.082" d="M96.879,525.502c9.93,0,17.979,8.052,17.979,17.981" name="角球2"/><path fill="none" stroke="#FFF" stroke-width="3.082" d="M735.59,543.483c0-9.93,8.049-17.981,17.981-17.981" name="角球3"/><path fill="none" stroke="#FFF" stroke-width="3.082" d="M753.568,68.561c-9.93,0-17.979-8.051-17.979-17.981" name="角球4"/></svg>